<svg width="114" height="55" fill="none" xmlns="http://www.w3.org/2000/svg"><path d="M71.04 22.21c1.014 5.358-2.925 12.949-11.744 9.854-.496-.174-.949-.458-1.36-.787-4.599-3.687-9.053-5.033-12.066-2.774-3.145 2.36-8.651 4.72-12.584 1.573-3.933-3.146-5.28-10.822 4.72-14.158 6.454-1.434 7.922 3.105 10.89 3.836a1.99 1.99 0 0 0 1.687-.374c2.253-1.745 4.756-6.526 11.805-5.821 3.932.393 7.758 3.932 8.651 8.652z" fill="#A563E7"/><path d="M18.235 46.862c-.175 2.406-1.066 4.301-2.673 5.683-1.598 1.383-3.708 2.074-6.33 2.074-2.867 0-5.125-.962-6.774-2.888C.819 49.796 0 47.143 0 43.774v-1.367c0-2.151.379-4.046 1.137-5.684.758-1.639 1.838-2.893 3.241-3.764 1.413-.88 3.052-1.321 4.916-1.321 2.58 0 4.66.691 6.237 2.074 1.577 1.382 2.489 3.323 2.734 5.822h-4.608c-.113-1.444-.518-2.489-1.214-3.134-.686-.655-1.736-.983-3.15-.983-1.535 0-2.687.553-3.455 1.66-.758 1.095-1.148 2.8-1.168 5.115v1.69c0 2.416.364 4.183 1.09 5.3.738 1.116 1.895 1.674 3.472 1.674 1.424 0 2.484-.323 3.18-.968.707-.655 1.112-1.664 1.214-3.026h4.609zM25.654 54.312H21.2V30.716h4.455v23.596zM28.634 45.848c0-1.65.318-3.119.953-4.41.635-1.29 1.546-2.288 2.734-2.995 1.199-.706 2.586-1.06 4.163-1.06 2.243 0 4.071.686 5.485 2.059 1.423 1.372 2.217 3.236 2.38 5.592l.032 1.136c0 2.55-.712 4.599-2.136 6.145-1.423 1.536-3.333 2.304-5.73 2.304-2.396 0-4.311-.768-5.745-2.304-1.424-1.536-2.136-3.625-2.136-6.267v-.2zm4.44.322c0 1.578.297 2.786.891 3.626.594.83 1.444 1.244 2.55 1.244 1.075 0 1.915-.41 2.52-1.229.604-.83.906-2.15.906-3.963 0-1.547-.302-2.745-.907-3.595-.604-.85-1.454-1.275-2.55-1.275-1.085 0-1.925.425-2.519 1.275-.594.84-.89 2.146-.89 3.917zM57.07 52.622c-1.096 1.332-2.612 1.997-4.548 1.997-1.782 0-3.144-.512-4.086-1.536-.932-1.024-1.408-2.524-1.429-4.5V37.69h4.44v10.738c0 1.73.788 2.596 2.366 2.596 1.505 0 2.54-.523 3.103-1.567V37.69h4.455v16.621h-4.179l-.123-1.69zM64.028 45.879c0-2.592.579-4.655 1.736-6.191 1.168-1.537 2.76-2.305 4.778-2.305 1.618 0 2.954.605 4.01 1.813v-8.48h4.454v23.596h-4.01l-.214-1.767c-1.106 1.383-2.53 2.074-4.271 2.074-1.956 0-3.528-.768-4.716-2.304-1.178-1.546-1.767-3.692-1.767-6.436zm4.44.322c0 1.557.271 2.75.814 3.58.543.829 1.331 1.244 2.366 1.244 1.372 0 2.34-.579 2.903-1.736v-6.56c-.553-1.157-1.51-1.736-2.873-1.736-2.14 0-3.21 1.736-3.21 5.208zM90.097 54.62c-2.437 0-4.424-.748-5.96-2.243-1.526-1.496-2.289-3.488-2.289-5.976v-.43c0-1.67.323-3.16.968-4.47.645-1.322 1.557-2.336 2.734-3.042 1.188-.717 2.54-1.076 4.056-1.076 2.273 0 4.06.717 5.361 2.151 1.311 1.434 1.966 3.467 1.966 6.099v1.812H86.35c.144 1.086.574 1.956 1.29 2.612.728.655 1.644.983 2.75.983 1.71 0 3.047-.62 4.01-1.859l2.181 2.443c-.666.942-1.567 1.68-2.704 2.212-1.136.522-2.396.783-3.779.783zm-.506-13.642c-.881 0-1.598.297-2.151.891-.543.594-.891 1.444-1.045 2.55h6.176v-.353c-.02-.983-.287-1.741-.8-2.274-.511-.543-1.238-.814-2.18-.814zM105.797 42.653l2.796-4.962h4.747l-4.732 8.141 4.932 8.48h-4.763l-2.964-5.223-2.95 5.223h-4.777l4.931-8.48-4.716-8.141h4.762l2.734 4.962z" fill="#2E1449"/></svg>