<?xml version="1.0" encoding="UTF-8" standalone="no"?>
<svg
   xmlns:dc="http://purl.org/dc/elements/1.1/"
   xmlns:cc="http://creativecommons.org/ns#"
   xmlns:rdf="http://www.w3.org/1999/02/22-rdf-syntax-ns#"
   xmlns:svg="http://www.w3.org/2000/svg"
   xmlns="http://www.w3.org/2000/svg"
   xmlns:sodipodi="http://sodipodi.sourceforge.net/DTD/sodipodi-0.dtd"
   xmlns:inkscape="http://www.inkscape.org/namespaces/inkscape"
   width="32"
   height="32"
   viewBox="0 0 32 32"
   version="1.1"
   id="svg4497"
   sodipodi:docname="twitter.svg"
   inkscape:version="0.92.1 r15371"
   style="fill:none">
  <metadata
     id="metadata4503">
    <rdf:RDF>
      <cc:Work
         rdf:about="">
        <dc:format>image/svg+xml</dc:format>
        <dc:type
           rdf:resource="http://purl.org/dc/dcmitype/StillImage" />
        <dc:title></dc:title>
      </cc:Work>
    </rdf:RDF>
  </metadata>
  <defs
     id="defs4501" />
  <sodipodi:namedview
     pagecolor="#ffffff"
     bordercolor="#666666"
     borderopacity="1"
     objecttolerance="10"
     gridtolerance="10"
     guidetolerance="10"
     inkscape:pageopacity="0"
     inkscape:pageshadow="2"
     inkscape:window-width="1024"
     inkscape:window-height="578"
     id="namedview4499"
     showgrid="false"
     inkscape:zoom="14.331387"
     inkscape:cx="12"
     inkscape:cy="14.348391"
     inkscape:window-x="-8"
     inkscape:window-y="-8"
     inkscape:window-maximized="1"
     inkscape:current-layer="svg4497" />
  <path
     d="m 16.057599,0.13431398 c -8.8223609,0 -16.00000027,7.17764022 -16.00000027,16.00000002 0,8.821733 7.17763937,16 16.00000027,16 8.821733,0 16,-7.178267 16,-16 0,-8.8223598 -7.176933,-16.00000002 -16,-16.00000002 z M 23.195332,12.472341 c 0.007,0.158547 0.01095,0.318387 0.01095,0.478213 0,4.86656 -3.7032,10.47616 -10.47872,10.47616 -2.07976,0 -4.0158009,-0.607733 -5.6450542,-1.6532 0.28808,0.03427 0.5813205,0.0516 0.8784405,0.0516 1.7259196,0 3.3132937,-0.589066 4.5739067,-1.5764 -1.611213,-0.0296 -2.9717201,-1.0944 -3.4402672,-2.558 0.2242801,0.04254 0.4556531,0.0664 0.6921871,0.0664 0.3357741,0 0.6618801,-0.04387 0.9705871,-0.128266 -1.6847017,-0.337739 -2.9537022,-1.825739 -2.9537022,-3.611072 0,-0.01547 1.39e-5,-0.03161 6.539e-4,-0.0464 0.4962528,0.2752 1.0640394,0.441466 1.6672802,0.460266 -0.9873474,-0.659333 -1.6376408,-1.787226 -1.6376408,-3.064586 0,-0.675426 0.1811072,-1.308306 0.4981867,-1.852253 1.8155202,2.228626 4.5300942,3.694187 7.5901212,3.848866 -0.0632,-0.270039 -0.0948,-0.5504 -0.0948,-0.839773 0,-2.033347 1.648667,-3.6825865 3.682,-3.6825865 1.059467,0 2.015333,0.4472805 2.688134,1.1626525 0.839733,-0.164986 1.625999,-0.47048 2.339466,-0.8939058 -0.277066,0.8603858 -0.859067,1.5815738 -1.621467,2.0378668 0.7456,-0.08894 1.4572,-0.286147 2.1152,-0.579387 -0.491072,0.737293 -1.115605,1.38628 -1.835472,1.9038 z"
     id="path4495"
     inkscape:connector-curvature="0"
     style="fill:#7400e8;stroke-width:1.33333325" />
</svg>
